<svg xmlns="http://www.w3.org/2000/svg" xmlns:xlink="http://www.w3.org/1999/xlink" version="1.1" x="0px" y="0px" viewBox="0 0 100 125" enable-background="new 0 0 100 100" xml:space="preserve"><path d="M75.432,47.891h-0.447c-0.041,0-0.078,0.013-0.115,0.023V7.603c0.003-0.036,0.003-0.071,0.003-0.107  c0-2.749-2.099-5.008-4.78-5.263c-0.002-0.008-0.004-0.016-0.005-0.024H30.706c0.002,0.002,0.004,0.005,0.006,0.009  c-0.099-0.006-0.197-0.009-0.297-0.009c-2.92,0-5.287,2.367-5.287,5.287c0,0.094,0.002,0.188,0.007,0.281  c-0.002-0.001-0.005-0.002-0.007-0.004v40.141c-0.036-0.01-0.071-0.022-0.111-0.022H24.57c-0.247,0-0.447,0.199-0.447,0.446v9.383  c0,0.247,0.2,0.447,0.447,0.447h0.447c0.04,0,0.075-0.013,0.111-0.022v34.401v0.001c0.023,2.901,2.381,5.244,5.287,5.244  c0.012,0,0.023,0,0.035,0h39.315c-0.002-0.001-0.002-0.001-0.002-0.003c2.832-0.095,5.1-2.416,5.105-5.269V58.144  c0.037,0.011,0.074,0.023,0.115,0.023h0.447c0.245,0,0.446-0.2,0.446-0.447v-9.383C75.878,48.091,75.677,47.891,75.432,47.891z   M50,63.789c0.727,0,1.314,0.589,1.314,1.314c0,0.727-0.588,1.315-1.314,1.315c-0.726,0-1.315-0.589-1.315-1.315  C48.685,64.378,49.274,63.789,50,63.789z M37.936,8.422c3.907,0,7.075,3.168,7.075,7.075s-3.168,7.075-7.075,7.075  s-7.075-3.168-7.075-7.075S34.029,8.422,37.936,8.422z M37.936,39.923c-3.907,0-7.075-3.167-7.075-7.075  c0-3.908,3.168-7.075,7.075-7.075s7.075,3.167,7.075,7.075C45.011,36.755,41.843,39.923,37.936,39.923z M50,87.805  c-3.167,0-5.734-2.568-5.734-5.734c0-3.167,2.567-5.734,5.734-5.734s5.734,2.567,5.734,5.734C55.734,85.236,53.167,87.805,50,87.805  z M62.062,39.923c-3.908,0-7.076-3.167-7.076-7.075c0-3.908,3.168-7.075,7.076-7.075c3.906,0,7.074,3.167,7.074,7.075  C69.137,36.755,65.969,39.923,62.062,39.923z M62.062,22.572c-3.908,0-7.076-3.168-7.076-7.075s3.168-7.075,7.076-7.075  c3.906,0,7.074,3.168,7.074,7.075S65.969,22.572,62.062,22.572z"/><path d="M37.936,12.63c0.144,0,0.26-0.116,0.26-0.26V9.341c0-0.144-0.116-0.26-0.26-0.26c-0.145,0-0.261,0.116-0.261,0.26v3.029  C37.675,12.513,37.791,12.63,37.936,12.63z"/><path d="M62.062,9.081c-0.146,0-0.262,0.116-0.262,0.26v3.029c0,0.143,0.115,0.26,0.262,0.26c0.145,0,0.262-0.116,0.262-0.26V9.341  C62.324,9.197,62.207,9.081,62.062,9.081z"/><path d="M37.936,26.432c-0.145,0-0.261,0.116-0.261,0.26v3.028c0,0.145,0.116,0.261,0.261,0.261c0.144,0,0.26-0.115,0.26-0.261  v-3.028C38.196,26.548,38.08,26.432,37.936,26.432z"/><path d="M62.062,26.432c-0.146,0-0.262,0.116-0.262,0.26v3.028c0,0.145,0.115,0.261,0.262,0.261c0.145,0,0.262-0.115,0.262-0.261  v-3.028C62.324,26.548,62.207,26.432,62.062,26.432z"/><text x="0" y="115" fill="#000000" font-size="5px" font-weight="bold" font-family="'Helvetica Neue', Helvetica, Arial-Unicode, Arial, Sans-serif">Created by Michael Keshen</text><text x="0" y="120" fill="#000000" font-size="5px" font-weight="bold" font-family="'Helvetica Neue', Helvetica, Arial-Unicode, Arial, Sans-serif">from the Noun Project</text></svg>